<?xml version="1.0" encoding="UTF-8"?><svg id="_レイヤー_1" xmlns="http://www.w3.org/2000/svg" viewBox="0 0 1024 1024"><defs><style>.cls-1{fill:#fff;}.cls-2{fill:#0650c6;}</style></defs><rect class="cls-2" x="-15.83" y="-20.21" width="1048.79" height="1060.65"/><path class="cls-1" d="M875.19,593.72c-73.42,7.83-84.19,36.22-84.19,97.89v115.52c-63.63,37.2-169.36,61.67-271.17,61.67-196.77,0-347.52-133.14-347.52-342.63,0-194.81,144.88-352.42,340.67-352.42,50.91,0,94.96,10.77,151.74,34.26,22.52,9.79,35.24,13.71,45.03,13.71,18.6,0,28.39-9.79,43.07-45.03h26.43v230.05h-24.47c-34.26-74.4-51.88-108.66-93.98-145.86-42.09-37.2-89.08-54.82-135.09-54.82-113.56,0-180.12,110.62-180.12,313.26,0,100.83,14.68,178.17,46.99,232.01,34.26,56.78,76.36,85.17,151.74,85.17,69.5,0,93.98-33.28,93.98-83.21v-87.13c0-50.91-15.66-67.55-99.85-72.44v-24.47h336.76v24.47Z"/></svg>